<svg xmlns="http://www.w3.org/2000/svg" width="512" height="512" viewBox="0 0 64 64" role="img" aria-label="HR Chat Assistant">
  <defs>
    <linearGradient id="g" x1="0" y1="0" x2="1" y2="1">
      <stop offset="0" stop-color="#9333EA"/>
      <stop offset="1" stop-color="#3B82F6"/>
    </linearGradient>
    <filter id="s" x="-20%" y="-20%" width="140%" height="140%">
      <feDropShadow dx="0" dy="2" stdDeviation="2" flood-color="#000" flood-opacity="0.25"/>
    </filter>
  </defs>
  <rect x="4" y="4" width="56" height="56" rx="14" fill="url(#g)"/>
  <!-- Chat bubble -->
  <g filter="url(#s)">
    <path d="M18 20h28a6 6 0 0 1 6 6v8a6 6 0 0 1-6 6H30l-7.5 6a1 1 0 0 1-1.6-.8V40h-3a6 6 0 0 1-6-6v-8a6 6 0 0 1 6-6Z" fill="#0b0b0b" opacity="0.25"/>
    <path d="M18 18h28a6 6 0 0 1 6 6v8a6 6 0 0 1-6 6H30l-7.5 6a1 1 0 0 1-1.6-.8V38h-3a6 6 0 0 1-6-6v-8a6 6 0 0 1 6-6Z" fill="#0b0b0b"/>
  </g>
  <!-- Monogram HR -->
  <g fill="none" stroke="#fff" stroke-width="3.2" stroke-linecap="round" stroke-linejoin="round">
    <path d="M23 30v8M23 34h8M31 30v8"/>
    <path d="M36 38v-8h6.5c2.2 0 3.5 1 3.5 3s-1.3 3-3.5 3H36"/>
  </g>
</svg>
